<svg width="439" height="435" viewBox="0 0 439 435" fill="none" xmlns="http://www.w3.org/2000/svg">
<g filter="url(#filter0_di_514_101)">
<rect x="15.5" y="11.5" width="408" height="404" rx="20" fill="white"/>
<rect x="15.5" y="11.5" width="408" height="404" rx="20" fill="url(#paint0_linear_514_101)"/>
<rect x="18.5" y="14.5" width="402" height="398" rx="17" stroke="white" stroke-width="6"/>
<rect x="1.5" y="-1.5" width="343" height="43" rx="6.5" transform="matrix(-1 0 0 1 392.5 133.5)" fill="url(#paint1_linear_514_101)"/>
<rect x="1.5" y="-1.5" width="343" height="43" rx="6.5" transform="matrix(-1 0 0 1 392.5 133.5)" fill="url(#paint2_linear_514_101)"/>
<rect x="1.5" y="-1.5" width="343" height="43" rx="6.5" transform="matrix(-1 0 0 1 392.5 133.5)" stroke="url(#paint3_linear_514_101)" stroke-width="3"/>
<rect x="1.5" y="-1.5" width="285" height="43" rx="6.5" transform="matrix(-1 0 0 1 334.5 189.5)" fill="url(#paint4_linear_514_101)"/>
<rect x="1.5" y="-1.5" width="285" height="43" rx="6.5" transform="matrix(-1 0 0 1 334.5 189.5)" fill="url(#paint5_linear_514_101)"/>
<rect x="1.5" y="-1.5" width="285" height="43" rx="6.5" transform="matrix(-1 0 0 1 334.5 189.5)" stroke="url(#paint6_linear_514_101)" stroke-width="3"/>
<rect x="1.5" y="-1.5" width="217" height="43" rx="6.5" transform="matrix(-1 0 0 1 266.5 245.5)" fill="url(#paint7_linear_514_101)"/>
<rect x="1.5" y="-1.5" width="217" height="43" rx="6.5" transform="matrix(-1 0 0 1 266.5 245.5)" fill="url(#paint8_linear_514_101)"/>
<rect x="1.5" y="-1.5" width="217" height="43" rx="6.5" transform="matrix(-1 0 0 1 266.5 245.5)" stroke="url(#paint9_linear_514_101)" stroke-width="3"/>
<path d="M320.439 89.4393C321.025 88.8536 321.975 88.8536 322.561 89.4393L332.107 98.9853C332.692 99.5711 332.692 100.521 332.107 101.107C331.521 101.692 330.571 101.692 329.985 101.107L321.5 92.6213L313.015 101.107C312.429 101.692 311.479 101.692 310.893 101.107C310.308 100.521 310.308 99.5711 310.893 98.9853L320.439 89.4393ZM321.5 112.5L320 112.5L320 90.5L321.5 90.5L323 90.5L323 112.5L321.5 112.5Z" fill="#3F51B5"/>
<path d="M350.854 103.898V107.207H336.525L336.293 104.609L344.441 91.5938H347.818L344.154 97.6641L340.449 103.898H350.854ZM348.721 91.5938V111.5H344.455V91.5938H348.721ZM366.562 99.7695V103.311C366.562 104.769 366.398 106.031 366.07 107.098C365.751 108.164 365.286 109.044 364.676 109.736C364.074 110.429 363.354 110.944 362.516 111.281C361.686 111.609 360.766 111.773 359.754 111.773C358.943 111.773 358.186 111.669 357.484 111.459C356.783 111.249 356.149 110.926 355.584 110.488C355.028 110.042 354.549 109.486 354.148 108.82C353.747 108.155 353.438 107.362 353.219 106.441C353.009 105.521 352.904 104.477 352.904 103.311V99.7695C352.904 98.293 353.064 97.026 353.383 95.9688C353.711 94.9115 354.18 94.0365 354.791 93.3438C355.402 92.651 356.122 92.1406 356.951 91.8125C357.79 91.4844 358.715 91.3203 359.727 91.3203C360.538 91.3203 361.29 91.4251 361.982 91.6348C362.684 91.8444 363.318 92.168 363.883 92.6055C364.448 93.043 364.926 93.5944 365.318 94.2598C365.719 94.9251 366.025 95.7181 366.234 96.6387C366.453 97.5501 366.562 98.5938 366.562 99.7695ZM362.297 103.844V99.209C362.297 98.5254 362.256 97.9329 362.174 97.4316C362.101 96.9212 361.992 96.4883 361.846 96.1328C361.709 95.7773 361.536 95.4902 361.326 95.2715C361.117 95.0527 360.875 94.8932 360.602 94.793C360.337 94.6836 360.046 94.6289 359.727 94.6289C359.326 94.6289 358.965 94.7109 358.646 94.875C358.327 95.0391 358.059 95.2988 357.84 95.6543C357.621 96.0007 357.452 96.4701 357.334 97.0625C357.225 97.6458 357.17 98.3613 357.17 99.209V103.844C357.17 104.527 357.206 105.124 357.279 105.635C357.361 106.145 357.471 106.583 357.607 106.947C357.753 107.303 357.931 107.594 358.141 107.822C358.35 108.041 358.592 108.201 358.865 108.301C359.139 108.401 359.435 108.451 359.754 108.451C360.155 108.451 360.51 108.374 360.82 108.219C361.13 108.055 361.395 107.795 361.613 107.439C361.841 107.075 362.01 106.596 362.119 106.004C362.238 105.411 362.297 104.691 362.297 103.844ZM369.092 96.4746V95.4219C369.092 94.6654 369.256 93.9772 369.584 93.3574C369.912 92.7376 370.4 92.2409 371.047 91.8672C371.703 91.4935 372.505 91.3066 373.453 91.3066C374.438 91.3066 375.253 91.4935 375.9 91.8672C376.548 92.2409 377.031 92.7376 377.35 93.3574C377.678 93.9772 377.842 94.6654 377.842 95.4219V96.4746C377.842 97.2129 377.678 97.8919 377.35 98.5117C377.031 99.1315 376.548 99.6283 375.9 100.002C375.262 100.376 374.456 100.562 373.48 100.562C372.523 100.562 371.717 100.376 371.061 100.002C370.413 99.6283 369.921 99.1315 369.584 98.5117C369.256 97.8919 369.092 97.2129 369.092 96.4746ZM371.881 95.4219V96.4746C371.881 96.7754 371.94 97.0579 372.059 97.3223C372.177 97.5866 372.355 97.8008 372.592 97.9648C372.829 98.1289 373.125 98.2109 373.48 98.2109C373.845 98.2109 374.141 98.1289 374.369 97.9648C374.597 97.8008 374.766 97.5866 374.875 97.3223C374.993 97.0579 375.053 96.7754 375.053 96.4746V95.4219C375.053 95.112 374.993 94.8249 374.875 94.5605C374.766 94.2871 374.592 94.0684 374.355 93.9043C374.118 93.7402 373.818 93.6582 373.453 93.6582C373.107 93.6582 372.815 93.7402 372.578 93.9043C372.35 94.0684 372.177 94.2871 372.059 94.5605C371.94 94.8249 371.881 95.112 371.881 95.4219ZM378.58 107.672V106.619C378.58 105.872 378.744 105.188 379.072 104.568C379.41 103.949 379.902 103.452 380.549 103.078C381.205 102.704 382.012 102.518 382.969 102.518C383.944 102.518 384.755 102.704 385.402 103.078C386.049 103.452 386.533 103.949 386.852 104.568C387.18 105.188 387.344 105.872 387.344 106.619V107.672C387.344 108.419 387.18 109.103 386.852 109.723C386.533 110.342 386.049 110.839 385.402 111.213C384.764 111.587 383.962 111.773 382.996 111.773C382.03 111.773 381.219 111.587 380.562 111.213C379.906 110.839 379.41 110.342 379.072 109.723C378.744 109.103 378.58 108.419 378.58 107.672ZM381.383 106.619V107.672C381.383 107.982 381.451 108.269 381.588 108.533C381.725 108.798 381.916 109.012 382.162 109.176C382.408 109.34 382.686 109.422 382.996 109.422C383.424 109.422 383.748 109.34 383.967 109.176C384.195 109.012 384.35 108.798 384.432 108.533C384.514 108.269 384.555 107.982 384.555 107.672V106.619C384.555 106.309 384.495 106.022 384.377 105.758C384.268 105.493 384.094 105.279 383.857 105.115C383.62 104.951 383.324 104.869 382.969 104.869C382.613 104.869 382.317 104.951 382.08 105.115C381.843 105.279 381.665 105.493 381.547 105.758C381.438 106.022 381.383 106.309 381.383 106.619ZM384.035 94.4512L374.314 110.01L372.277 108.957L381.998 93.3984L384.035 94.4512Z" fill="#3F51B5"/>
<path d="M65.7929 358.293C66.1834 357.902 66.8166 357.902 67.2071 358.293L73.5711 364.657C73.9616 365.047 73.9616 365.681 73.5711 366.071C73.1805 366.462 72.5474 366.462 72.1569 366.071L66.5 360.414L60.8431 366.071C60.4526 366.462 59.8195 366.462 59.4289 366.071C59.0384 365.681 59.0384 365.047 59.4289 364.657L65.7929 358.293ZM66.5 376L65.5 376L65.5 359L66.5 359L67.5 359L67.5 376L66.5 376Z" fill="#3F51B5"/>
<path d="M90.543 369.418V371.668H78.2383L78.1445 369.969L85.5039 358.438H87.7656L85.3164 362.633L81.0859 369.418H90.543ZM88.4102 358.438V375.5H85.5859V358.438H88.4102ZM103.551 365.539V368.328C103.551 369.664 103.418 370.805 103.152 371.75C102.895 372.688 102.52 373.449 102.027 374.035C101.535 374.621 100.945 375.051 100.258 375.324C99.5781 375.598 98.8164 375.734 97.9727 375.734C97.3008 375.734 96.6758 375.648 96.0977 375.477C95.5273 375.305 95.0117 375.035 94.5508 374.668C94.0898 374.301 93.6953 373.828 93.3672 373.25C93.0469 372.664 92.7969 371.965 92.6172 371.152C92.4453 370.34 92.3594 369.398 92.3594 368.328V365.539C92.3594 364.195 92.4922 363.062 92.7578 362.141C93.0234 361.211 93.4023 360.457 93.8945 359.879C94.3867 359.293 94.9727 358.867 95.6523 358.602C96.3398 358.336 97.1055 358.203 97.9492 358.203C98.6289 358.203 99.2539 358.289 99.8242 358.461C100.402 358.625 100.918 358.887 101.371 359.246C101.832 359.605 102.223 360.074 102.543 360.652C102.871 361.223 103.121 361.914 103.293 362.727C103.465 363.531 103.551 364.469 103.551 365.539ZM100.727 368.727V365.117C100.727 364.438 100.688 363.84 100.609 363.324C100.531 362.801 100.414 362.359 100.258 362C100.109 361.633 99.9219 361.336 99.6953 361.109C99.4688 360.875 99.2109 360.707 98.9219 360.605C98.6328 360.496 98.3086 360.441 97.9492 360.441C97.5117 360.441 97.1211 360.527 96.7773 360.699C96.4336 360.863 96.1445 361.129 95.9102 361.496C95.6758 361.863 95.4961 362.348 95.3711 362.949C95.2539 363.543 95.1953 364.266 95.1953 365.117V368.727C95.1953 369.414 95.2344 370.02 95.3125 370.543C95.3906 371.066 95.5078 371.516 95.6641 371.891C95.8203 372.258 96.0078 372.562 96.2266 372.805C96.4531 373.039 96.7109 373.211 97 373.32C97.2969 373.43 97.6211 373.484 97.9727 373.484C98.418 373.484 98.8125 373.398 99.1562 373.227C99.5 373.055 99.7891 372.781 100.023 372.406C100.258 372.023 100.434 371.527 100.551 370.918C100.668 370.309 100.727 369.578 100.727 368.727ZM105.953 362.621V361.719C105.953 361.07 106.094 360.48 106.375 359.949C106.656 359.418 107.066 358.992 107.605 358.672C108.145 358.352 108.793 358.191 109.551 358.191C110.332 358.191 110.988 358.352 111.52 358.672C112.059 358.992 112.469 359.418 112.75 359.949C113.031 360.48 113.172 361.07 113.172 361.719V362.621C113.172 363.254 113.031 363.836 112.75 364.367C112.477 364.898 112.07 365.324 111.531 365.645C111 365.965 110.348 366.125 109.574 366.125C108.809 366.125 108.152 365.965 107.605 365.645C107.066 365.324 106.656 364.898 106.375 364.367C106.094 363.836 105.953 363.254 105.953 362.621ZM107.91 361.719V362.621C107.91 362.934 107.969 363.23 108.086 363.512C108.211 363.793 108.398 364.02 108.648 364.191C108.898 364.363 109.207 364.449 109.574 364.449C109.949 364.449 110.254 364.363 110.488 364.191C110.73 364.02 110.91 363.793 111.027 363.512C111.145 363.23 111.203 362.934 111.203 362.621V361.719C111.203 361.398 111.141 361.098 111.016 360.816C110.898 360.527 110.719 360.297 110.477 360.125C110.234 359.953 109.926 359.867 109.551 359.867C109.191 359.867 108.887 359.953 108.637 360.125C108.395 360.297 108.211 360.527 108.086 360.816C107.969 361.098 107.91 361.398 107.91 361.719ZM114.18 372.23V371.316C114.18 370.676 114.32 370.09 114.602 369.559C114.891 369.027 115.305 368.602 115.844 368.281C116.383 367.961 117.031 367.801 117.789 367.801C118.57 367.801 119.227 367.961 119.758 368.281C120.297 368.602 120.703 369.027 120.977 369.559C121.258 370.09 121.398 370.676 121.398 371.316V372.23C121.398 372.871 121.258 373.457 120.977 373.988C120.703 374.52 120.301 374.945 119.77 375.266C119.238 375.586 118.586 375.746 117.812 375.746C117.047 375.746 116.391 375.586 115.844 375.266C115.305 374.945 114.891 374.52 114.602 373.988C114.32 373.457 114.18 372.871 114.18 372.23ZM116.148 371.316V372.23C116.148 372.543 116.211 372.84 116.336 373.121C116.469 373.402 116.66 373.633 116.91 373.812C117.16 373.984 117.461 374.07 117.812 374.07C118.211 374.07 118.531 373.984 118.773 373.812C119.016 373.633 119.188 373.406 119.289 373.133C119.398 372.852 119.453 372.551 119.453 372.23V371.316C119.453 370.996 119.391 370.695 119.266 370.414C119.148 370.133 118.965 369.906 118.715 369.734C118.473 369.562 118.164 369.477 117.789 369.477C117.422 369.477 117.117 369.562 116.875 369.734C116.633 369.906 116.449 370.133 116.324 370.414C116.207 370.695 116.148 370.996 116.148 371.316ZM118.492 360.875L110.16 374.211L108.719 373.379L117.051 360.043L118.492 360.875ZM135.695 362.82V364.883H128.547V362.82H135.695ZM130.609 359.715H133.434V371.996C133.434 372.387 133.488 372.688 133.598 372.898C133.715 373.102 133.875 373.238 134.078 373.309C134.281 373.379 134.52 373.414 134.793 373.414C134.988 373.414 135.176 373.402 135.355 373.379C135.535 373.355 135.68 373.332 135.789 373.309L135.801 375.465C135.566 375.535 135.293 375.598 134.98 375.652C134.676 375.707 134.324 375.734 133.926 375.734C133.277 375.734 132.703 375.621 132.203 375.395C131.703 375.16 131.312 374.781 131.031 374.258C130.75 373.734 130.609 373.039 130.609 372.172V359.715ZM143.465 375.734C142.527 375.734 141.68 375.582 140.922 375.277C140.172 374.965 139.531 374.531 139 373.977C138.477 373.422 138.074 372.77 137.793 372.02C137.512 371.27 137.371 370.461 137.371 369.594V369.125C137.371 368.133 137.516 367.234 137.805 366.43C138.094 365.625 138.496 364.938 139.012 364.367C139.527 363.789 140.137 363.348 140.84 363.043C141.543 362.738 142.305 362.586 143.125 362.586C144.031 362.586 144.824 362.738 145.504 363.043C146.184 363.348 146.746 363.777 147.191 364.332C147.645 364.879 147.98 365.531 148.199 366.289C148.426 367.047 148.539 367.883 148.539 368.797V370.004H138.742V367.977H145.75V367.754C145.734 367.246 145.633 366.77 145.445 366.324C145.266 365.879 144.988 365.52 144.613 365.246C144.238 364.973 143.738 364.836 143.113 364.836C142.645 364.836 142.227 364.938 141.859 365.141C141.5 365.336 141.199 365.621 140.957 365.996C140.715 366.371 140.527 366.824 140.395 367.355C140.27 367.879 140.207 368.469 140.207 369.125V369.594C140.207 370.148 140.281 370.664 140.43 371.141C140.586 371.609 140.812 372.02 141.109 372.371C141.406 372.723 141.766 373 142.188 373.203C142.609 373.398 143.09 373.496 143.629 373.496C144.309 373.496 144.914 373.359 145.445 373.086C145.977 372.812 146.438 372.426 146.828 371.926L148.316 373.367C148.043 373.766 147.688 374.148 147.25 374.516C146.812 374.875 146.277 375.168 145.645 375.395C145.02 375.621 144.293 375.734 143.465 375.734ZM155.922 373.484C156.383 373.484 156.797 373.395 157.164 373.215C157.539 373.027 157.84 372.77 158.066 372.441C158.301 372.113 158.43 371.734 158.453 371.305H161.113C161.098 372.125 160.855 372.871 160.387 373.543C159.918 374.215 159.297 374.75 158.523 375.148C157.75 375.539 156.895 375.734 155.957 375.734C154.988 375.734 154.145 375.57 153.426 375.242C152.707 374.906 152.109 374.445 151.633 373.859C151.156 373.273 150.797 372.598 150.555 371.832C150.32 371.066 150.203 370.246 150.203 369.371V368.961C150.203 368.086 150.32 367.266 150.555 366.5C150.797 365.727 151.156 365.047 151.633 364.461C152.109 363.875 152.707 363.418 153.426 363.09C154.145 362.754 154.984 362.586 155.945 362.586C156.961 362.586 157.852 362.789 158.617 363.195C159.383 363.594 159.984 364.152 160.422 364.871C160.867 365.582 161.098 366.41 161.113 367.355H158.453C158.43 366.887 158.312 366.465 158.102 366.09C157.898 365.707 157.609 365.402 157.234 365.176C156.867 364.949 156.426 364.836 155.91 364.836C155.34 364.836 154.867 364.953 154.492 365.188C154.117 365.414 153.824 365.727 153.613 366.125C153.402 366.516 153.25 366.957 153.156 367.449C153.07 367.934 153.027 368.438 153.027 368.961V369.371C153.027 369.895 153.07 370.402 153.156 370.895C153.242 371.387 153.391 371.828 153.602 372.219C153.82 372.602 154.117 372.91 154.492 373.145C154.867 373.371 155.344 373.484 155.922 373.484ZM166.07 357.5V375.5H163.258V357.5H166.07ZM165.578 368.691L164.664 368.68C164.672 367.805 164.793 366.996 165.027 366.254C165.27 365.512 165.605 364.867 166.035 364.32C166.473 363.766 166.996 363.34 167.605 363.043C168.215 362.738 168.891 362.586 169.633 362.586C170.258 362.586 170.82 362.672 171.32 362.844C171.828 363.016 172.266 363.293 172.633 363.676C173 364.051 173.277 364.543 173.465 365.152C173.66 365.754 173.758 366.488 173.758 367.355V375.5H170.922V367.332C170.922 366.723 170.832 366.238 170.652 365.879C170.48 365.52 170.227 365.262 169.891 365.105C169.555 364.941 169.145 364.859 168.66 364.859C168.152 364.859 167.703 364.961 167.312 365.164C166.93 365.367 166.609 365.645 166.352 365.996C166.094 366.348 165.898 366.754 165.766 367.215C165.641 367.676 165.578 368.168 165.578 368.691ZM179.418 365.527V375.5H176.594V362.82H179.254L179.418 365.527ZM178.914 368.691L178 368.68C178.008 367.781 178.133 366.957 178.375 366.207C178.625 365.457 178.969 364.812 179.406 364.273C179.852 363.734 180.383 363.32 181 363.031C181.617 362.734 182.305 362.586 183.062 362.586C183.672 362.586 184.223 362.672 184.715 362.844C185.215 363.008 185.641 363.277 185.992 363.652C186.352 364.027 186.625 364.516 186.812 365.117C187 365.711 187.094 366.441 187.094 367.309V375.5H184.258V367.297C184.258 366.688 184.168 366.207 183.988 365.855C183.816 365.496 183.562 365.242 183.227 365.094C182.898 364.938 182.488 364.859 181.996 364.859C181.512 364.859 181.078 364.961 180.695 365.164C180.312 365.367 179.988 365.645 179.723 365.996C179.465 366.348 179.266 366.754 179.125 367.215C178.984 367.676 178.914 368.168 178.914 368.691ZM193 362.82V375.5H190.164V362.82H193ZM189.977 359.492C189.977 359.062 190.117 358.707 190.398 358.426C190.688 358.137 191.086 357.992 191.594 357.992C192.094 357.992 192.488 358.137 192.777 358.426C193.066 358.707 193.211 359.062 193.211 359.492C193.211 359.914 193.066 360.266 192.777 360.547C192.488 360.828 192.094 360.969 191.594 360.969C191.086 360.969 190.688 360.828 190.398 360.547C190.117 360.266 189.977 359.914 189.977 359.492ZM201.273 373.484C201.734 373.484 202.148 373.395 202.516 373.215C202.891 373.027 203.191 372.77 203.418 372.441C203.652 372.113 203.781 371.734 203.805 371.305H206.465C206.449 372.125 206.207 372.871 205.738 373.543C205.27 374.215 204.648 374.75 203.875 375.148C203.102 375.539 202.246 375.734 201.309 375.734C200.34 375.734 199.496 375.57 198.777 375.242C198.059 374.906 197.461 374.445 196.984 373.859C196.508 373.273 196.148 372.598 195.906 371.832C195.672 371.066 195.555 370.246 195.555 369.371V368.961C195.555 368.086 195.672 367.266 195.906 366.5C196.148 365.727 196.508 365.047 196.984 364.461C197.461 363.875 198.059 363.418 198.777 363.09C199.496 362.754 200.336 362.586 201.297 362.586C202.312 362.586 203.203 362.789 203.969 363.195C204.734 363.594 205.336 364.152 205.773 364.871C206.219 365.582 206.449 366.41 206.465 367.355H203.805C203.781 366.887 203.664 366.465 203.453 366.09C203.25 365.707 202.961 365.402 202.586 365.176C202.219 364.949 201.777 364.836 201.262 364.836C200.691 364.836 200.219 364.953 199.844 365.188C199.469 365.414 199.176 365.727 198.965 366.125C198.754 366.516 198.602 366.957 198.508 367.449C198.422 367.934 198.379 368.438 198.379 368.961V369.371C198.379 369.895 198.422 370.402 198.508 370.895C198.594 371.387 198.742 371.828 198.953 372.219C199.172 372.602 199.469 372.91 199.844 373.145C200.219 373.371 200.695 373.484 201.273 373.484ZM211.656 362.82V375.5H208.82V362.82H211.656ZM208.633 359.492C208.633 359.062 208.773 358.707 209.055 358.426C209.344 358.137 209.742 357.992 210.25 357.992C210.75 357.992 211.145 358.137 211.434 358.426C211.723 358.707 211.867 359.062 211.867 359.492C211.867 359.914 211.723 360.266 211.434 360.547C211.145 360.828 210.75 360.969 210.25 360.969C209.742 360.969 209.344 360.828 209.055 360.547C208.773 360.266 208.633 359.914 208.633 359.492ZM221.898 372.957V366.91C221.898 366.457 221.816 366.066 221.652 365.738C221.488 365.41 221.238 365.156 220.902 364.977C220.574 364.797 220.16 364.707 219.66 364.707C219.199 364.707 218.801 364.785 218.465 364.941C218.129 365.098 217.867 365.309 217.68 365.574C217.492 365.84 217.398 366.141 217.398 366.477H214.586C214.586 365.977 214.707 365.492 214.949 365.023C215.191 364.555 215.543 364.137 216.004 363.77C216.465 363.402 217.016 363.113 217.656 362.902C218.297 362.691 219.016 362.586 219.812 362.586C220.766 362.586 221.609 362.746 222.344 363.066C223.086 363.387 223.668 363.871 224.09 364.52C224.52 365.16 224.734 365.965 224.734 366.934V372.57C224.734 373.148 224.773 373.668 224.852 374.129C224.938 374.582 225.059 374.977 225.215 375.312V375.5H222.32C222.188 375.195 222.082 374.809 222.004 374.34C221.934 373.863 221.898 373.402 221.898 372.957ZM222.309 367.789L222.332 369.535H220.305C219.781 369.535 219.32 369.586 218.922 369.688C218.523 369.781 218.191 369.922 217.926 370.109C217.66 370.297 217.461 370.523 217.328 370.789C217.195 371.055 217.129 371.355 217.129 371.691C217.129 372.027 217.207 372.336 217.363 372.617C217.52 372.891 217.746 373.105 218.043 373.262C218.348 373.418 218.715 373.496 219.145 373.496C219.723 373.496 220.227 373.379 220.656 373.145C221.094 372.902 221.438 372.609 221.688 372.266C221.938 371.914 222.07 371.582 222.086 371.27L223 372.523C222.906 372.844 222.746 373.188 222.52 373.555C222.293 373.922 221.996 374.273 221.629 374.609C221.27 374.938 220.836 375.207 220.328 375.418C219.828 375.629 219.25 375.734 218.594 375.734C217.766 375.734 217.027 375.57 216.379 375.242C215.73 374.906 215.223 374.457 214.855 373.895C214.488 373.324 214.305 372.68 214.305 371.961C214.305 371.289 214.43 370.695 214.68 370.18C214.938 369.656 215.312 369.219 215.805 368.867C216.305 368.516 216.914 368.25 217.633 368.07C218.352 367.883 219.172 367.789 220.094 367.789H222.309ZM230.488 365.527V375.5H227.664V362.82H230.324L230.488 365.527ZM229.984 368.691L229.07 368.68C229.078 367.781 229.203 366.957 229.445 366.207C229.695 365.457 230.039 364.812 230.477 364.273C230.922 363.734 231.453 363.32 232.07 363.031C232.688 362.734 233.375 362.586 234.133 362.586C234.742 362.586 235.293 362.672 235.785 362.844C236.285 363.008 236.711 363.277 237.062 363.652C237.422 364.027 237.695 364.516 237.883 365.117C238.07 365.711 238.164 366.441 238.164 367.309V375.5H235.328V367.297C235.328 366.688 235.238 366.207 235.059 365.855C234.887 365.496 234.633 365.242 234.297 365.094C233.969 364.938 233.559 364.859 233.066 364.859C232.582 364.859 232.148 364.961 231.766 365.164C231.383 365.367 231.059 365.645 230.793 365.996C230.535 366.348 230.336 366.754 230.195 367.215C230.055 367.676 229.984 368.168 229.984 368.691ZM249.859 365.258V380.375H247.035V362.82H249.637L249.859 365.258ZM258.121 369.043V369.289C258.121 370.211 258.012 371.066 257.793 371.855C257.582 372.637 257.266 373.32 256.844 373.906C256.43 374.484 255.918 374.934 255.309 375.254C254.699 375.574 253.996 375.734 253.199 375.734C252.41 375.734 251.719 375.59 251.125 375.301C250.539 375.004 250.043 374.586 249.637 374.047C249.23 373.508 248.902 372.875 248.652 372.148C248.41 371.414 248.238 370.609 248.137 369.734V368.785C248.238 367.855 248.41 367.012 248.652 366.254C248.902 365.496 249.23 364.844 249.637 364.297C250.043 363.75 250.539 363.328 251.125 363.031C251.711 362.734 252.395 362.586 253.176 362.586C253.973 362.586 254.68 362.742 255.297 363.055C255.914 363.359 256.434 363.797 256.855 364.367C257.277 364.93 257.594 365.609 257.805 366.406C258.016 367.195 258.121 368.074 258.121 369.043ZM255.297 369.289V369.043C255.297 368.457 255.242 367.914 255.133 367.414C255.023 366.906 254.852 366.461 254.617 366.078C254.383 365.695 254.082 365.398 253.715 365.188C253.355 364.969 252.922 364.859 252.414 364.859C251.914 364.859 251.484 364.945 251.125 365.117C250.766 365.281 250.465 365.512 250.223 365.809C249.98 366.105 249.793 366.453 249.66 366.852C249.527 367.242 249.434 367.668 249.379 368.129V370.402C249.473 370.965 249.633 371.48 249.859 371.949C250.086 372.418 250.406 372.793 250.82 373.074C251.242 373.348 251.781 373.484 252.438 373.484C252.945 373.484 253.379 373.375 253.738 373.156C254.098 372.938 254.391 372.637 254.617 372.254C254.852 371.863 255.023 371.414 255.133 370.906C255.242 370.398 255.297 369.859 255.297 369.289ZM263.359 365.234V375.5H260.535V362.82H263.23L263.359 365.234ZM267.238 362.738L267.215 365.363C267.043 365.332 266.855 365.309 266.652 365.293C266.457 365.277 266.262 365.27 266.066 365.27C265.582 365.27 265.156 365.34 264.789 365.48C264.422 365.613 264.113 365.809 263.863 366.066C263.621 366.316 263.434 366.621 263.301 366.98C263.168 367.34 263.09 367.742 263.066 368.188L262.422 368.234C262.422 367.438 262.5 366.699 262.656 366.02C262.812 365.34 263.047 364.742 263.359 364.227C263.68 363.711 264.078 363.309 264.555 363.02C265.039 362.73 265.598 362.586 266.23 362.586C266.402 362.586 266.586 362.602 266.781 362.633C266.984 362.664 267.137 362.699 267.238 362.738ZM268.164 369.301V369.031C268.164 368.117 268.297 367.27 268.562 366.488C268.828 365.699 269.211 365.016 269.711 364.438C270.219 363.852 270.836 363.398 271.562 363.078C272.297 362.75 273.125 362.586 274.047 362.586C274.977 362.586 275.805 362.75 276.531 363.078C277.266 363.398 277.887 363.852 278.395 364.438C278.902 365.016 279.289 365.699 279.555 366.488C279.82 367.27 279.953 368.117 279.953 369.031V369.301C279.953 370.215 279.82 371.062 279.555 371.844C279.289 372.625 278.902 373.309 278.395 373.895C277.887 374.473 277.27 374.926 276.543 375.254C275.816 375.574 274.992 375.734 274.07 375.734C273.141 375.734 272.309 375.574 271.574 375.254C270.848 374.926 270.23 374.473 269.723 373.895C269.215 373.309 268.828 372.625 268.562 371.844C268.297 371.062 268.164 370.215 268.164 369.301ZM270.988 369.031V369.301C270.988 369.871 271.047 370.41 271.164 370.918C271.281 371.426 271.465 371.871 271.715 372.254C271.965 372.637 272.285 372.938 272.676 373.156C273.066 373.375 273.531 373.484 274.07 373.484C274.594 373.484 275.047 373.375 275.43 373.156C275.82 372.938 276.141 372.637 276.391 372.254C276.641 371.871 276.824 371.426 276.941 370.918C277.066 370.41 277.129 369.871 277.129 369.301V369.031C277.129 368.469 277.066 367.938 276.941 367.438C276.824 366.93 276.637 366.48 276.379 366.09C276.129 365.699 275.809 365.395 275.418 365.176C275.035 364.949 274.578 364.836 274.047 364.836C273.516 364.836 273.055 364.949 272.664 365.176C272.281 365.395 271.965 365.699 271.715 366.09C271.465 366.48 271.281 366.93 271.164 367.438C271.047 367.938 270.988 368.469 270.988 369.031ZM290.055 372.875V357.5H292.891V375.5H290.324L290.055 372.875ZM281.805 369.301V369.055C281.805 368.094 281.918 367.219 282.145 366.43C282.371 365.633 282.699 364.949 283.129 364.379C283.559 363.801 284.082 363.359 284.699 363.055C285.316 362.742 286.012 362.586 286.785 362.586C287.551 362.586 288.223 362.734 288.801 363.031C289.379 363.328 289.871 363.754 290.277 364.309C290.684 364.855 291.008 365.512 291.25 366.277C291.492 367.035 291.664 367.879 291.766 368.809V369.594C291.664 370.5 291.492 371.328 291.25 372.078C291.008 372.828 290.684 373.477 290.277 374.023C289.871 374.57 289.375 374.992 288.789 375.289C288.211 375.586 287.535 375.734 286.762 375.734C285.996 375.734 285.305 375.574 284.688 375.254C284.078 374.934 283.559 374.484 283.129 373.906C282.699 373.328 282.371 372.648 282.145 371.867C281.918 371.078 281.805 370.223 281.805 369.301ZM284.629 369.055V369.301C284.629 369.879 284.68 370.418 284.781 370.918C284.891 371.418 285.059 371.859 285.285 372.242C285.512 372.617 285.805 372.914 286.164 373.133C286.531 373.344 286.969 373.449 287.477 373.449C288.117 373.449 288.645 373.309 289.059 373.027C289.473 372.746 289.797 372.367 290.031 371.891C290.273 371.406 290.438 370.867 290.523 370.273V368.152C290.477 367.691 290.379 367.262 290.23 366.863C290.09 366.465 289.898 366.117 289.656 365.82C289.414 365.516 289.113 365.281 288.754 365.117C288.402 364.945 287.984 364.859 287.5 364.859C286.984 364.859 286.547 364.969 286.188 365.188C285.828 365.406 285.531 365.707 285.297 366.09C285.07 366.473 284.902 366.918 284.793 367.426C284.684 367.934 284.629 368.477 284.629 369.055ZM303.473 372.512V362.82H306.309V375.5H303.637L303.473 372.512ZM303.871 369.875L304.82 369.852C304.82 370.703 304.727 371.488 304.539 372.207C304.352 372.918 304.062 373.539 303.672 374.07C303.281 374.594 302.781 375.004 302.172 375.301C301.562 375.59 300.832 375.734 299.98 375.734C299.363 375.734 298.797 375.645 298.281 375.465C297.766 375.285 297.32 375.008 296.945 374.633C296.578 374.258 296.293 373.77 296.09 373.168C295.887 372.566 295.785 371.848 295.785 371.012V362.82H298.609V371.035C298.609 371.496 298.664 371.883 298.773 372.195C298.883 372.5 299.031 372.746 299.219 372.934C299.406 373.121 299.625 373.254 299.875 373.332C300.125 373.41 300.391 373.449 300.672 373.449C301.477 373.449 302.109 373.293 302.57 372.98C303.039 372.66 303.371 372.23 303.566 371.691C303.77 371.152 303.871 370.547 303.871 369.875ZM314.383 373.484C314.844 373.484 315.258 373.395 315.625 373.215C316 373.027 316.301 372.77 316.527 372.441C316.762 372.113 316.891 371.734 316.914 371.305H319.574C319.559 372.125 319.316 372.871 318.848 373.543C318.379 374.215 317.758 374.75 316.984 375.148C316.211 375.539 315.355 375.734 314.418 375.734C313.449 375.734 312.605 375.57 311.887 375.242C311.168 374.906 310.57 374.445 310.094 373.859C309.617 373.273 309.258 372.598 309.016 371.832C308.781 371.066 308.664 370.246 308.664 369.371V368.961C308.664 368.086 308.781 367.266 309.016 366.5C309.258 365.727 309.617 365.047 310.094 364.461C310.57 363.875 311.168 363.418 311.887 363.09C312.605 362.754 313.445 362.586 314.406 362.586C315.422 362.586 316.312 362.789 317.078 363.195C317.844 363.594 318.445 364.152 318.883 364.871C319.328 365.582 319.559 366.41 319.574 367.355H316.914C316.891 366.887 316.773 366.465 316.562 366.09C316.359 365.707 316.07 365.402 315.695 365.176C315.328 364.949 314.887 364.836 314.371 364.836C313.801 364.836 313.328 364.953 312.953 365.188C312.578 365.414 312.285 365.727 312.074 366.125C311.863 366.516 311.711 366.957 311.617 367.449C311.531 367.934 311.488 368.438 311.488 368.961V369.371C311.488 369.895 311.531 370.402 311.617 370.895C311.703 371.387 311.852 371.828 312.062 372.219C312.281 372.602 312.578 372.91 312.953 373.145C313.328 373.371 313.805 373.484 314.383 373.484ZM327.555 362.82V364.883H320.406V362.82H327.555ZM322.469 359.715H325.293V371.996C325.293 372.387 325.348 372.688 325.457 372.898C325.574 373.102 325.734 373.238 325.938 373.309C326.141 373.379 326.379 373.414 326.652 373.414C326.848 373.414 327.035 373.402 327.215 373.379C327.395 373.355 327.539 373.332 327.648 373.309L327.66 375.465C327.426 375.535 327.152 375.598 326.84 375.652C326.535 375.707 326.184 375.734 325.785 375.734C325.137 375.734 324.562 375.621 324.062 375.395C323.562 375.16 323.172 374.781 322.891 374.258C322.609 373.734 322.469 373.039 322.469 372.172V359.715ZM332.758 362.82V375.5H329.922V362.82H332.758ZM329.734 359.492C329.734 359.062 329.875 358.707 330.156 358.426C330.445 358.137 330.844 357.992 331.352 357.992C331.852 357.992 332.246 358.137 332.535 358.426C332.824 358.707 332.969 359.062 332.969 359.492C332.969 359.914 332.824 360.266 332.535 360.547C332.246 360.828 331.852 360.969 331.352 360.969C330.844 360.969 330.445 360.828 330.156 360.547C329.875 360.266 329.734 359.914 329.734 359.492ZM339.977 373.262L343.082 362.82H346.012L341.605 375.5H339.777L339.977 373.262ZM337.598 362.82L340.762 373.309L340.914 375.5H339.086L334.656 362.82H337.598ZM350.781 362.82V375.5H347.945V362.82H350.781ZM347.758 359.492C347.758 359.062 347.898 358.707 348.18 358.426C348.469 358.137 348.867 357.992 349.375 357.992C349.875 357.992 350.27 358.137 350.559 358.426C350.848 358.707 350.992 359.062 350.992 359.492C350.992 359.914 350.848 360.266 350.559 360.547C350.27 360.828 349.875 360.969 349.375 360.969C348.867 360.969 348.469 360.828 348.18 360.547C347.898 360.266 347.758 359.914 347.758 359.492ZM359.688 362.82V364.883H352.539V362.82H359.688ZM354.602 359.715H357.426V371.996C357.426 372.387 357.48 372.688 357.59 372.898C357.707 373.102 357.867 373.238 358.07 373.309C358.273 373.379 358.512 373.414 358.785 373.414C358.98 373.414 359.168 373.402 359.348 373.379C359.527 373.355 359.672 373.332 359.781 373.309L359.793 375.465C359.559 375.535 359.285 375.598 358.973 375.652C358.668 375.707 358.316 375.734 357.918 375.734C357.27 375.734 356.695 375.621 356.195 375.395C355.695 375.16 355.305 374.781 355.023 374.258C354.742 373.734 354.602 373.039 354.602 372.172V359.715ZM365.547 374.117L368.992 362.82H372.016L366.93 377.434C366.812 377.746 366.66 378.086 366.473 378.453C366.285 378.82 366.039 379.168 365.734 379.496C365.438 379.832 365.066 380.102 364.621 380.305C364.176 380.516 363.637 380.621 363.004 380.621C362.754 380.621 362.512 380.598 362.277 380.551C362.051 380.512 361.836 380.469 361.633 380.422L361.621 378.266C361.699 378.273 361.793 378.281 361.902 378.289C362.02 378.297 362.113 378.301 362.184 378.301C362.652 378.301 363.043 378.242 363.355 378.125C363.668 378.016 363.922 377.836 364.117 377.586C364.32 377.336 364.492 377 364.633 376.578L365.547 374.117ZM363.602 362.82L366.613 372.312L367.117 375.289L365.16 375.793L360.555 362.82H363.602Z" fill="#3F51B5"/>
</g>
<defs>
<filter id="filter0_di_514_101" x="0" y="0" width="439" height="435" filterUnits="userSpaceOnUse" color-interpolation-filters="sRGB">
<feFlood flood-opacity="0" result="BackgroundImageFix"/>
<feColorMatrix in="SourceAlpha" type="matrix" values="0 0 0 0 0 0 0 0 0 0 0 0 0 0 0 0 0 0 127 0" result="hardAlpha"/>
<feMorphology radius="3" operator="erode" in="SourceAlpha" result="effect1_dropShadow_514_101"/>
<feOffset dy="4"/>
<feGaussianBlur stdDeviation="9.25"/>
<feComposite in2="hardAlpha" operator="out"/>
<feColorMatrix type="matrix" values="0 0 0 0 0 0 0 0 0 0 0 0 0 0 0 0 0 0 0.12 0"/>
<feBlend mode="normal" in2="BackgroundImageFix" result="effect1_dropShadow_514_101"/>
<feBlend mode="normal" in="SourceGraphic" in2="effect1_dropShadow_514_101" result="shape"/>
<feColorMatrix in="SourceAlpha" type="matrix" values="0 0 0 0 0 0 0 0 0 0 0 0 0 0 0 0 0 0 127 0" result="hardAlpha"/>
<feOffset dx="-4" dy="4"/>
<feGaussianBlur stdDeviation="9.7"/>
<feComposite in2="hardAlpha" operator="arithmetic" k2="-1" k3="1"/>
<feColorMatrix type="matrix" values="0 0 0 0 0.00150976 0 0 0 0 0.0781402 0 0 0 0 0.512379 0 0 0 0.17 0"/>
<feBlend mode="normal" in2="shape" result="effect2_innerShadow_514_101"/>
</filter>
<linearGradient id="paint0_linear_514_101" x1="245" y1="-67" x2="239.211" y2="86.1632" gradientUnits="userSpaceOnUse">
<stop stop-color="#C6D6EB"/>
<stop offset="1" stop-color="#F6F9FF" stop-opacity="0.29"/>
</linearGradient>
<linearGradient id="paint1_linear_514_101" x1="0" y1="20" x2="340" y2="20" gradientUnits="userSpaceOnUse">
<stop stop-color="#D0B6FD"/>
<stop offset="1" stop-color="#D0B6FD" stop-opacity="0"/>
</linearGradient>
<linearGradient id="paint2_linear_514_101" x1="0" y1="20" x2="340" y2="20" gradientUnits="userSpaceOnUse">
<stop stop-color="#E0E5FF"/>
<stop offset="1" stop-color="white"/>
</linearGradient>
<linearGradient id="paint3_linear_514_101" x1="0" y1="20" x2="340" y2="20" gradientUnits="userSpaceOnUse">
<stop stop-color="#3F51B5"/>
<stop offset="1" stop-color="#FEFEFF"/>
</linearGradient>
<linearGradient id="paint4_linear_514_101" x1="0" y1="20" x2="282" y2="20" gradientUnits="userSpaceOnUse">
<stop stop-color="#D0B6FD"/>
<stop offset="1" stop-color="#D0B6FD" stop-opacity="0"/>
</linearGradient>
<linearGradient id="paint5_linear_514_101" x1="0" y1="20" x2="282" y2="20" gradientUnits="userSpaceOnUse">
<stop stop-color="#E0E5FF"/>
<stop offset="1" stop-color="white"/>
</linearGradient>
<linearGradient id="paint6_linear_514_101" x1="0" y1="20" x2="282" y2="20" gradientUnits="userSpaceOnUse">
<stop stop-color="#3F51B5"/>
<stop offset="1" stop-color="#FEFEFF"/>
</linearGradient>
<linearGradient id="paint7_linear_514_101" x1="0" y1="20" x2="214" y2="20" gradientUnits="userSpaceOnUse">
<stop stop-color="#D0B6FD"/>
<stop offset="1" stop-color="#D0B6FD" stop-opacity="0"/>
</linearGradient>
<linearGradient id="paint8_linear_514_101" x1="0" y1="20" x2="214" y2="20" gradientUnits="userSpaceOnUse">
<stop stop-color="#E0E5FF"/>
<stop offset="1" stop-color="white"/>
</linearGradient>
<linearGradient id="paint9_linear_514_101" x1="0" y1="20" x2="214" y2="20" gradientUnits="userSpaceOnUse">
<stop stop-color="#3F51B5"/>
<stop offset="1" stop-color="#FEFEFF"/>
</linearGradient>
</defs>
</svg>
